<mxfile host="app.diagrams.net" modified="2021-12-13T02:05:37.740Z" agent="5.0 (Windows)" etag="JxOkmypzRCVrrFUStmoj" version="15.9.4" type="github">
  <diagram id="34U3bB2nn1moleNT7o-H" name="Page-1">
    <mxGraphModel dx="813" dy="430" grid="1" gridSize="10" guides="1" tooltips="1" connect="1" arrows="1" fold="1" page="1" pageScale="1" pageWidth="827" pageHeight="1169" math="0" shadow="0">
      <root>
        <mxCell id="0" />
        <mxCell id="1" parent="0" />
        <mxCell id="B3VE4itMxpxUhw1qKuWX-1" value="" style="rounded=0;whiteSpace=wrap;html=1;strokeWidth=2;fillColor=#f5f5f5;fontColor=#333333;strokeColor=#666666;" parent="1" vertex="1">
          <mxGeometry x="200" y="160" width="360" height="360" as="geometry" />
        </mxCell>
        <mxCell id="B3VE4itMxpxUhw1qKuWX-2" value="" style="endArrow=classic;html=1;rounded=0;fillColor=#f8cecc;strokeColor=#FF0000;strokeWidth=2;" parent="1" edge="1">
          <mxGeometry width="50" height="50" relative="1" as="geometry">
            <mxPoint x="120" y="220" as="sourcePoint" />
            <mxPoint x="220" y="220" as="targetPoint" />
          </mxGeometry>
        </mxCell>
        <mxCell id="B3VE4itMxpxUhw1qKuWX-30" value="1" style="edgeLabel;html=1;align=center;verticalAlign=middle;resizable=0;points=[];fontSize=20;fontColor=#FF0000;fontStyle=1" parent="B3VE4itMxpxUhw1qKuWX-2" vertex="1" connectable="0">
          <mxGeometry x="-0.55" y="-1" relative="1" as="geometry">
            <mxPoint x="17" as="offset" />
          </mxGeometry>
        </mxCell>
        <mxCell id="B3VE4itMxpxUhw1qKuWX-3" value="" style="endArrow=classic;html=1;rounded=0;fillColor=#f8cecc;strokeColor=#FF0000;strokeWidth=2;" parent="1" edge="1">
          <mxGeometry width="50" height="50" relative="1" as="geometry">
            <mxPoint x="120" y="260" as="sourcePoint" />
            <mxPoint x="220" y="260" as="targetPoint" />
          </mxGeometry>
        </mxCell>
        <mxCell id="B3VE4itMxpxUhw1qKuWX-31" value="&lt;div style=&quot;font-size: 20px;&quot;&gt;2&lt;/div&gt;" style="edgeLabel;html=1;align=center;verticalAlign=middle;resizable=0;points=[];fontSize=20;fontColor=#FF0000;fontStyle=1" parent="B3VE4itMxpxUhw1qKuWX-3" vertex="1" connectable="0">
          <mxGeometry x="-0.5" y="2" relative="1" as="geometry">
            <mxPoint x="15" as="offset" />
          </mxGeometry>
        </mxCell>
        <mxCell id="B3VE4itMxpxUhw1qKuWX-4" value="" style="endArrow=classic;html=1;rounded=0;fillColor=#f8cecc;strokeColor=#FF0000;strokeWidth=2;" parent="1" edge="1">
          <mxGeometry width="50" height="50" relative="1" as="geometry">
            <mxPoint x="120" y="300" as="sourcePoint" />
            <mxPoint x="220" y="300" as="targetPoint" />
          </mxGeometry>
        </mxCell>
        <mxCell id="B3VE4itMxpxUhw1qKuWX-32" value="左上" style="edgeLabel;html=1;align=center;verticalAlign=middle;resizable=0;points=[];fontSize=20;fontColor=#FF0000;fontStyle=1" parent="B3VE4itMxpxUhw1qKuWX-4" vertex="1" connectable="0">
          <mxGeometry x="-0.5234" relative="1" as="geometry">
            <mxPoint x="16" as="offset" />
          </mxGeometry>
        </mxCell>
        <mxCell id="B3VE4itMxpxUhw1qKuWX-5" value="" style="endArrow=classic;html=1;rounded=0;strokeColor=#009900;strokeWidth=2;" parent="1" edge="1">
          <mxGeometry width="50" height="50" relative="1" as="geometry">
            <mxPoint x="220" y="380" as="sourcePoint" />
            <mxPoint x="120" y="380" as="targetPoint" />
          </mxGeometry>
        </mxCell>
        <mxCell id="B3VE4itMxpxUhw1qKuWX-6" value="" style="endArrow=classic;html=1;rounded=0;fillColor=#d5e8d4;strokeColor=#0000FF;strokeWidth=2;" parent="1" edge="1">
          <mxGeometry width="50" height="50" relative="1" as="geometry">
            <mxPoint x="220" y="420" as="sourcePoint" />
            <mxPoint x="120" y="420" as="targetPoint" />
          </mxGeometry>
        </mxCell>
        <mxCell id="B3VE4itMxpxUhw1qKuWX-33" value="1" style="edgeLabel;html=1;align=center;verticalAlign=middle;resizable=0;points=[];fontSize=20;fontColor=#0000FF;fontStyle=1" parent="B3VE4itMxpxUhw1qKuWX-6" vertex="1" connectable="0">
          <mxGeometry x="0.3993" relative="1" as="geometry">
            <mxPoint x="10" as="offset" />
          </mxGeometry>
        </mxCell>
        <mxCell id="B3VE4itMxpxUhw1qKuWX-7" value="" style="endArrow=classic;html=1;rounded=0;fillColor=#d5e8d4;strokeColor=#0000FF;strokeWidth=2;" parent="1" edge="1">
          <mxGeometry width="50" height="50" relative="1" as="geometry">
            <mxPoint x="220" y="460" as="sourcePoint" />
            <mxPoint x="120" y="460" as="targetPoint" />
          </mxGeometry>
        </mxCell>
        <mxCell id="B3VE4itMxpxUhw1qKuWX-34" value="2" style="edgeLabel;html=1;align=center;verticalAlign=middle;resizable=0;points=[];fontSize=20;fontColor=#0000FF;fontStyle=1" parent="B3VE4itMxpxUhw1qKuWX-7" vertex="1" connectable="0">
          <mxGeometry x="0.3717" relative="1" as="geometry">
            <mxPoint x="8" as="offset" />
          </mxGeometry>
        </mxCell>
        <mxCell id="B3VE4itMxpxUhw1qKuWX-8" value="" style="endArrow=classic;html=1;rounded=0;fillColor=#d5e8d4;strokeColor=#0000FF;strokeWidth=2;" parent="1" edge="1">
          <mxGeometry width="50" height="50" relative="1" as="geometry">
            <mxPoint x="540" y="219.66" as="sourcePoint" />
            <mxPoint x="640" y="219.66" as="targetPoint" />
          </mxGeometry>
        </mxCell>
        <mxCell id="B3VE4itMxpxUhw1qKuWX-35" value="1" style="edgeLabel;html=1;align=center;verticalAlign=middle;resizable=0;points=[];fontSize=20;fontColor=#0000FF;fontStyle=1" parent="B3VE4itMxpxUhw1qKuWX-8" vertex="1" connectable="0">
          <mxGeometry x="0.2076" y="1" relative="1" as="geometry">
            <mxPoint x="-1" as="offset" />
          </mxGeometry>
        </mxCell>
        <mxCell id="B3VE4itMxpxUhw1qKuWX-9" value="" style="endArrow=classic;html=1;rounded=0;fillColor=#d5e8d4;strokeColor=#0000FF;strokeWidth=2;" parent="1" edge="1">
          <mxGeometry width="50" height="50" relative="1" as="geometry">
            <mxPoint x="540" y="259.66" as="sourcePoint" />
            <mxPoint x="640" y="259.66" as="targetPoint" />
          </mxGeometry>
        </mxCell>
        <mxCell id="B3VE4itMxpxUhw1qKuWX-36" value="2" style="edgeLabel;html=1;align=center;verticalAlign=middle;resizable=0;points=[];fontSize=20;fontColor=#0000FF;fontStyle=1" parent="B3VE4itMxpxUhw1qKuWX-9" vertex="1" connectable="0">
          <mxGeometry x="0.1938" y="1" relative="1" as="geometry">
            <mxPoint as="offset" />
          </mxGeometry>
        </mxCell>
        <mxCell id="B3VE4itMxpxUhw1qKuWX-10" value="" style="endArrow=classic;html=1;rounded=0;strokeColor=#009900;strokeWidth=2;" parent="1" edge="1">
          <mxGeometry width="50" height="50" relative="1" as="geometry">
            <mxPoint x="540" y="299.66" as="sourcePoint" />
            <mxPoint x="640" y="299.66" as="targetPoint" />
          </mxGeometry>
        </mxCell>
        <mxCell id="B3VE4itMxpxUhw1qKuWX-11" value="" style="endArrow=classic;html=1;rounded=0;strokeColor=#FF0000;strokeWidth=2;" parent="1" edge="1">
          <mxGeometry width="50" height="50" relative="1" as="geometry">
            <mxPoint x="640" y="379.66" as="sourcePoint" />
            <mxPoint x="540" y="379.66" as="targetPoint" />
          </mxGeometry>
        </mxCell>
        <mxCell id="B3VE4itMxpxUhw1qKuWX-37" value="右下" style="edgeLabel;html=1;align=center;verticalAlign=middle;resizable=0;points=[];fontSize=20;fontColor=#FF0000;fontStyle=1" parent="B3VE4itMxpxUhw1qKuWX-11" vertex="1" connectable="0">
          <mxGeometry x="-0.2214" y="2" relative="1" as="geometry">
            <mxPoint x="-1" as="offset" />
          </mxGeometry>
        </mxCell>
        <mxCell id="B3VE4itMxpxUhw1qKuWX-12" value="" style="endArrow=classic;html=1;rounded=0;strokeColor=#FF0000;strokeWidth=2;" parent="1" edge="1">
          <mxGeometry width="50" height="50" relative="1" as="geometry">
            <mxPoint x="640" y="419.66" as="sourcePoint" />
            <mxPoint x="540" y="419.66" as="targetPoint" />
          </mxGeometry>
        </mxCell>
        <mxCell id="B3VE4itMxpxUhw1qKuWX-38" value="1" style="edgeLabel;html=1;align=center;verticalAlign=middle;resizable=0;points=[];fontSize=20;fontColor=#FF0000;fontStyle=1" parent="B3VE4itMxpxUhw1qKuWX-12" vertex="1" connectable="0">
          <mxGeometry x="-0.2766" y="-1" relative="1" as="geometry">
            <mxPoint x="-4" as="offset" />
          </mxGeometry>
        </mxCell>
        <mxCell id="B3VE4itMxpxUhw1qKuWX-13" value="" style="endArrow=classic;html=1;rounded=0;strokeColor=#FF0000;strokeWidth=2;" parent="1" edge="1">
          <mxGeometry width="50" height="50" relative="1" as="geometry">
            <mxPoint x="640" y="459.66" as="sourcePoint" />
            <mxPoint x="540" y="459.66" as="targetPoint" />
          </mxGeometry>
        </mxCell>
        <mxCell id="B3VE4itMxpxUhw1qKuWX-39" value="2" style="edgeLabel;html=1;align=center;verticalAlign=middle;resizable=0;points=[];fontSize=20;fontColor=#FF0000;fontStyle=1" parent="B3VE4itMxpxUhw1qKuWX-13" vertex="1" connectable="0">
          <mxGeometry x="-0.2766" y="-1" relative="1" as="geometry">
            <mxPoint x="-4" as="offset" />
          </mxGeometry>
        </mxCell>
        <mxCell id="B3VE4itMxpxUhw1qKuWX-14" value="" style="endArrow=classic;html=1;rounded=0;fillColor=#d5e8d4;strokeColor=#0000FF;strokeWidth=2;" parent="1" edge="1">
          <mxGeometry width="50" height="50" relative="1" as="geometry">
            <mxPoint x="260" y="180" as="sourcePoint" />
            <mxPoint x="260" y="80" as="targetPoint" />
          </mxGeometry>
        </mxCell>
        <mxCell id="B3VE4itMxpxUhw1qKuWX-45" value="1" style="edgeLabel;html=1;align=center;verticalAlign=middle;resizable=0;points=[];fontSize=20;fontColor=#0000FF;fontStyle=1" parent="B3VE4itMxpxUhw1qKuWX-14" vertex="1" connectable="0">
          <mxGeometry x="0.1662" y="2" relative="1" as="geometry">
            <mxPoint x="2" y="-1" as="offset" />
          </mxGeometry>
        </mxCell>
        <mxCell id="B3VE4itMxpxUhw1qKuWX-15" value="" style="endArrow=classic;html=1;rounded=0;fillColor=#d5e8d4;strokeColor=#0000FF;strokeWidth=2;" parent="1" edge="1">
          <mxGeometry width="50" height="50" relative="1" as="geometry">
            <mxPoint x="300" y="180" as="sourcePoint" />
            <mxPoint x="300" y="80" as="targetPoint" />
          </mxGeometry>
        </mxCell>
        <mxCell id="B3VE4itMxpxUhw1qKuWX-46" value="2" style="edgeLabel;html=1;align=center;verticalAlign=middle;resizable=0;points=[];fontSize=20;fontColor=#0000FF;fontStyle=1" parent="B3VE4itMxpxUhw1qKuWX-15" vertex="1" connectable="0">
          <mxGeometry x="0.2352" y="2" relative="1" as="geometry">
            <mxPoint x="2" y="2" as="offset" />
          </mxGeometry>
        </mxCell>
        <mxCell id="B3VE4itMxpxUhw1qKuWX-16" value="" style="endArrow=classic;html=1;rounded=0;fillColor=#f8cecc;strokeColor=#009900;strokeWidth=2;" parent="1" edge="1">
          <mxGeometry width="50" height="50" relative="1" as="geometry">
            <mxPoint x="340" y="180" as="sourcePoint" />
            <mxPoint x="340" y="80" as="targetPoint" />
          </mxGeometry>
        </mxCell>
        <mxCell id="B3VE4itMxpxUhw1qKuWX-17" value="" style="endArrow=classic;html=1;rounded=0;strokeColor=#FF0000;strokeWidth=2;" parent="1" edge="1">
          <mxGeometry width="50" height="50" relative="1" as="geometry">
            <mxPoint x="420" y="80" as="sourcePoint" />
            <mxPoint x="420" y="180" as="targetPoint" />
          </mxGeometry>
        </mxCell>
        <mxCell id="B3VE4itMxpxUhw1qKuWX-47" value="右上" style="edgeLabel;html=1;align=center;verticalAlign=middle;resizable=0;points=[];fontSize=20;fontColor=#FF0000;fontStyle=1" parent="B3VE4itMxpxUhw1qKuWX-17" vertex="1" connectable="0">
          <mxGeometry x="-0.1662" y="-2" relative="1" as="geometry">
            <mxPoint x="4" y="-2" as="offset" />
          </mxGeometry>
        </mxCell>
        <mxCell id="B3VE4itMxpxUhw1qKuWX-18" value="" style="endArrow=classic;html=1;rounded=0;strokeColor=#FF0000;strokeWidth=2;" parent="1" edge="1">
          <mxGeometry width="50" height="50" relative="1" as="geometry">
            <mxPoint x="460" y="80" as="sourcePoint" />
            <mxPoint x="460" y="180" as="targetPoint" />
          </mxGeometry>
        </mxCell>
        <mxCell id="B3VE4itMxpxUhw1qKuWX-48" value="1" style="edgeLabel;html=1;align=center;verticalAlign=middle;resizable=0;points=[];fontSize=20;fontColor=#FF0000;fontStyle=1" parent="B3VE4itMxpxUhw1qKuWX-18" vertex="1" connectable="0">
          <mxGeometry x="-0.18" y="-1" relative="1" as="geometry">
            <mxPoint x="2" y="-1" as="offset" />
          </mxGeometry>
        </mxCell>
        <mxCell id="B3VE4itMxpxUhw1qKuWX-19" value="" style="endArrow=classic;html=1;rounded=0;strokeColor=#FF0000;strokeWidth=2;" parent="1" edge="1">
          <mxGeometry width="50" height="50" relative="1" as="geometry">
            <mxPoint x="500" y="80" as="sourcePoint" />
            <mxPoint x="500" y="180" as="targetPoint" />
          </mxGeometry>
        </mxCell>
        <mxCell id="B3VE4itMxpxUhw1qKuWX-49" value="2" style="edgeLabel;html=1;align=center;verticalAlign=middle;resizable=0;points=[];fontSize=20;fontColor=#FF0000;fontStyle=1" parent="B3VE4itMxpxUhw1qKuWX-19" vertex="1" connectable="0">
          <mxGeometry x="-0.2214" y="-2" relative="1" as="geometry">
            <mxPoint x="2" y="1" as="offset" />
          </mxGeometry>
        </mxCell>
        <mxCell id="B3VE4itMxpxUhw1qKuWX-20" value="" style="endArrow=classic;html=1;rounded=0;strokeColor=#FF0000;strokeWidth=2;" parent="1" edge="1">
          <mxGeometry width="50" height="50" relative="1" as="geometry">
            <mxPoint x="259.66" y="600" as="sourcePoint" />
            <mxPoint x="259.66" y="500" as="targetPoint" />
          </mxGeometry>
        </mxCell>
        <mxCell id="B3VE4itMxpxUhw1qKuWX-40" value="1" style="edgeLabel;html=1;align=center;verticalAlign=middle;resizable=0;points=[];fontSize=20;fontColor=#FF0000;fontStyle=1" parent="B3VE4itMxpxUhw1qKuWX-20" vertex="1" connectable="0">
          <mxGeometry x="-0.4131" relative="1" as="geometry">
            <mxPoint y="-10" as="offset" />
          </mxGeometry>
        </mxCell>
        <mxCell id="B3VE4itMxpxUhw1qKuWX-21" value="" style="endArrow=classic;html=1;rounded=0;strokeColor=#FF0000;strokeWidth=2;" parent="1" edge="1">
          <mxGeometry width="50" height="50" relative="1" as="geometry">
            <mxPoint x="299.66" y="600" as="sourcePoint" />
            <mxPoint x="299.66" y="500" as="targetPoint" />
          </mxGeometry>
        </mxCell>
        <mxCell id="B3VE4itMxpxUhw1qKuWX-41" value="2" style="edgeLabel;html=1;align=center;verticalAlign=middle;resizable=0;points=[];fontSize=20;fontColor=#FF0000;fontStyle=1" parent="B3VE4itMxpxUhw1qKuWX-21" vertex="1" connectable="0">
          <mxGeometry x="-0.3579" y="3" relative="1" as="geometry">
            <mxPoint x="3" y="-8" as="offset" />
          </mxGeometry>
        </mxCell>
        <mxCell id="B3VE4itMxpxUhw1qKuWX-22" value="" style="endArrow=classic;html=1;rounded=0;strokeColor=#FF0000;strokeWidth=2;" parent="1" edge="1">
          <mxGeometry width="50" height="50" relative="1" as="geometry">
            <mxPoint x="339.66" y="600" as="sourcePoint" />
            <mxPoint x="339.66" y="500" as="targetPoint" />
          </mxGeometry>
        </mxCell>
        <mxCell id="B3VE4itMxpxUhw1qKuWX-42" value="左下" style="edgeLabel;html=1;align=center;verticalAlign=middle;resizable=0;points=[];fontSize=20;fontColor=#FF0000;fontStyle=1" parent="B3VE4itMxpxUhw1qKuWX-22" vertex="1" connectable="0">
          <mxGeometry x="-0.289" y="1" relative="1" as="geometry">
            <mxPoint y="-4" as="offset" />
          </mxGeometry>
        </mxCell>
        <mxCell id="B3VE4itMxpxUhw1qKuWX-23" value="" style="endArrow=classic;html=1;rounded=0;strokeColor=#009900;strokeWidth=2;" parent="1" edge="1">
          <mxGeometry width="50" height="50" relative="1" as="geometry">
            <mxPoint x="419.66" y="500" as="sourcePoint" />
            <mxPoint x="419.66" y="600" as="targetPoint" />
          </mxGeometry>
        </mxCell>
        <mxCell id="B3VE4itMxpxUhw1qKuWX-24" value="" style="endArrow=classic;html=1;rounded=0;fillColor=#d5e8d4;strokeColor=#0000FF;strokeWidth=2;" parent="1" edge="1">
          <mxGeometry width="50" height="50" relative="1" as="geometry">
            <mxPoint x="459.66" y="500" as="sourcePoint" />
            <mxPoint x="459.66" y="600" as="targetPoint" />
          </mxGeometry>
        </mxCell>
        <mxCell id="B3VE4itMxpxUhw1qKuWX-43" value="1" style="edgeLabel;html=1;align=center;verticalAlign=middle;resizable=0;points=[];fontSize=20;fontColor=#0000FF;fontStyle=1" parent="B3VE4itMxpxUhw1qKuWX-24" vertex="1" connectable="0">
          <mxGeometry x="0.2752" y="-1" relative="1" as="geometry">
            <mxPoint y="-4" as="offset" />
          </mxGeometry>
        </mxCell>
        <mxCell id="B3VE4itMxpxUhw1qKuWX-25" value="" style="endArrow=classic;html=1;rounded=0;fillColor=#d5e8d4;strokeColor=#0000FF;strokeWidth=2;" parent="1" edge="1">
          <mxGeometry width="50" height="50" relative="1" as="geometry">
            <mxPoint x="499.66" y="500" as="sourcePoint" />
            <mxPoint x="499.66" y="600" as="targetPoint" />
          </mxGeometry>
        </mxCell>
        <mxCell id="B3VE4itMxpxUhw1qKuWX-44" value="2" style="edgeLabel;html=1;align=center;verticalAlign=middle;resizable=0;points=[];fontSize=20;fontColor=#0000FF;fontStyle=1" parent="B3VE4itMxpxUhw1qKuWX-25" vertex="1" connectable="0">
          <mxGeometry x="0.2338" y="-3" relative="1" as="geometry">
            <mxPoint x="3" y="-2" as="offset" />
          </mxGeometry>
        </mxCell>
        <mxCell id="B3VE4itMxpxUhw1qKuWX-26" value="" style="endArrow=classic;html=1;rounded=0;fillColor=#f8cecc;strokeColor=#009900;strokeWidth=2;" parent="1" edge="1">
          <mxGeometry width="50" height="50" relative="1" as="geometry">
            <mxPoint x="220" y="220" as="sourcePoint" />
            <mxPoint x="340" y="180" as="targetPoint" />
            <Array as="points">
              <mxPoint x="340" y="220" />
            </Array>
          </mxGeometry>
        </mxCell>
        <mxCell id="B3VE4itMxpxUhw1qKuWX-27" value="" style="endArrow=classic;html=1;rounded=0;strokeColor=#009900;strokeWidth=2;" parent="1" edge="1">
          <mxGeometry width="50" height="50" relative="1" as="geometry">
            <mxPoint x="500" y="180" as="sourcePoint" />
            <mxPoint x="540" y="300" as="targetPoint" />
            <Array as="points">
              <mxPoint x="500" y="300" />
            </Array>
          </mxGeometry>
        </mxCell>
        <mxCell id="B3VE4itMxpxUhw1qKuWX-28" value="" style="endArrow=classic;html=1;rounded=0;strokeColor=#009900;strokeWidth=2;" parent="1" edge="1">
          <mxGeometry width="50" height="50" relative="1" as="geometry">
            <mxPoint x="540" y="460" as="sourcePoint" />
            <mxPoint x="420" y="500" as="targetPoint" />
            <Array as="points">
              <mxPoint x="420" y="460" />
            </Array>
          </mxGeometry>
        </mxCell>
        <mxCell id="B3VE4itMxpxUhw1qKuWX-29" value="" style="endArrow=classic;html=1;rounded=0;strokeColor=#009900;strokeWidth=2;" parent="1" edge="1">
          <mxGeometry width="50" height="50" relative="1" as="geometry">
            <mxPoint x="260" y="500" as="sourcePoint" />
            <mxPoint x="220" y="380" as="targetPoint" />
            <Array as="points">
              <mxPoint x="260" y="380" />
            </Array>
          </mxGeometry>
        </mxCell>
        <mxCell id="B3VE4itMxpxUhw1qKuWX-50" value="&lt;h1 style=&quot;font-size: 48px;&quot;&gt;&lt;font style=&quot;font-size: 48px;&quot;&gt;4×4&lt;/font&gt;&lt;/h1&gt;" style="text;html=1;align=center;verticalAlign=middle;whiteSpace=wrap;rounded=0;fontSize=48;" parent="1" vertex="1">
          <mxGeometry x="350" y="325" width="60" height="30" as="geometry" />
        </mxCell>
        <mxCell id="m9SCanEVCpvJ-eZS-Ybl-4" value="5" style="rounded=0;whiteSpace=wrap;html=1;fontStyle=1;fillColor=#000000;fontColor=#ffffff;strokeColor=#000000;" vertex="1" parent="1">
          <mxGeometry x="90" y="210" width="20" height="20" as="geometry" />
        </mxCell>
        <mxCell id="m9SCanEVCpvJ-eZS-Ybl-5" value="9" style="rounded=0;whiteSpace=wrap;html=1;fontStyle=1;fillColor=#000000;fontColor=#ffffff;strokeColor=#000000;" vertex="1" parent="1">
          <mxGeometry x="90" y="250" width="20" height="20" as="geometry" />
        </mxCell>
        <mxCell id="m9SCanEVCpvJ-eZS-Ybl-6" value="1" style="rounded=0;whiteSpace=wrap;html=1;fontStyle=1;fillColor=#000000;fontColor=#ffffff;strokeColor=#000000;" vertex="1" parent="1">
          <mxGeometry x="90" y="290" width="20" height="20" as="geometry" />
        </mxCell>
        <mxCell id="m9SCanEVCpvJ-eZS-Ybl-7" value="6" style="rounded=0;whiteSpace=wrap;html=1;fontStyle=1;fillColor=#000000;fontColor=#ffffff;strokeColor=#000000;" vertex="1" parent="1">
          <mxGeometry x="90" y="410" width="20" height="20" as="geometry" />
        </mxCell>
        <mxCell id="m9SCanEVCpvJ-eZS-Ybl-8" value="10" style="rounded=0;whiteSpace=wrap;html=1;fontStyle=1;fillColor=#000000;fontColor=#ffffff;strokeColor=#000000;" vertex="1" parent="1">
          <mxGeometry x="90" y="450" width="20" height="20" as="geometry" />
        </mxCell>
      </root>
    </mxGraphModel>
  </diagram>
</mxfile>
